<svg width="243.004" height="242.005" viewBox="0 0 243.004 242.005" xmlns="http://www.w3.org/2000/svg"><g id="svgGroup" stroke-linecap="round" fill-rule="evenodd" font-size="9pt" stroke="#0033ff" stroke-width="0" fill="#0033ff" style="stroke:#0033ff;stroke-width:0;fill:#0033ff"><path d="M 227.253 144.003 L 66.753 144.003 A 54.702 54.702 0 0 0 73.596 160.693 A 47.141 47.141 0 0 0 87.128 174.628 A 58.88 58.88 0 0 0 107.197 183.183 Q 116.159 185.253 126.753 185.253 Q 165.503 185.253 210.753 171.503 A 18.895 18.895 0 0 1 216.659 170.503 A 17.981 17.981 0 0 1 216.753 170.503 A 11.166 11.166 0 0 1 224.499 173.616 A 16.581 16.581 0 0 1 226.253 175.503 Q 230.253 180.503 233.503 192.503 A 89.443 89.443 0 0 1 234.977 198.796 Q 236.003 204.089 236.003 208.253 Q 236.003 212.842 234.57 215.998 A 11.384 11.384 0 0 1 233.128 218.378 Q 230.99 221.073 226.847 223.009 A 32.199 32.199 0 0 1 223.753 224.253 Q 198.753 232.503 172.753 237.253 A 284.145 284.145 0 0 1 123.316 241.998 A 263.648 263.648 0 0 1 121.753 242.003 A 156.908 156.908 0 0 1 90.513 239.036 A 116.454 116.454 0 0 1 56.253 226.503 Q 28.753 211.003 14.378 183.628 Q 0.003 156.253 0.003 121.003 A 139.583 139.583 0 0 1 4.683 84.241 A 118.472 118.472 0 0 1 15.003 58.503 Q 30.003 31.003 58.253 15.503 Q 86.503 0.003 124.253 0.003 A 146.992 146.992 0 0 1 155.091 3.081 A 107.592 107.592 0 0 1 189.003 16.378 Q 215.753 32.753 229.378 61.878 Q 243.003 91.003 243.003 128.503 Q 243.003 136.26 239.984 139.853 A 8.534 8.534 0 0 1 239.378 140.503 A 10.467 10.467 0 0 1 235.888 142.67 Q 232.499 144.003 227.253 144.003 Z M 67.753 95.253 L 177.753 95.253 A 51.884 51.884 0 0 0 171.412 79.535 A 44.791 44.791 0 0 0 159.628 66.878 A 50.829 50.829 0 0 0 140.75 58.489 Q 133.63 56.861 125.361 56.76 A 90.064 90.064 0 0 0 124.253 56.753 A 81.712 81.712 0 0 0 103.133 59.273 Q 78.533 65.859 69.578 89.653 A 67.184 67.184 0 0 0 67.753 95.253 Z" vector-effect="non-scaling-stroke"/></g></svg>