<svg width="1167.506" height="333.503" viewBox="0 0 1167.506 333.503" xmlns="http://www.w3.org/2000/svg"><g id="svgGroup" stroke-linecap="round" fill-rule="evenodd" font-size="9pt" stroke="#0033ff" stroke-width="0" fill="#0033ff" style="stroke:#0033ff;stroke-width:0;fill:#0033ff"><path d="M 695.503 15.75 L 695.503 137.25 Q 725.503 91.5 768.003 91.5 A 87.518 87.518 0 0 1 789.347 94 A 70.589 70.589 0 0 1 807.878 101.5 Q 825.003 111.5 834.253 129.875 A 84.681 84.681 0 0 1 841.976 153.943 A 113.947 113.947 0 0 1 843.503 173 L 843.503 276.75 L 862.753 276.75 A 27.248 27.248 0 0 1 866.234 276.958 Q 869.769 277.414 872.003 278.875 A 9.47 9.47 0 0 1 874.575 281.437 Q 875.407 282.632 876.063 284.193 A 22.199 22.199 0 0 1 876.878 286.5 Q 878.337 291.438 878.486 300.406 A 126.017 126.017 0 0 1 878.503 302.5 Q 878.503 311.6 877.282 316.944 A 25.657 25.657 0 0 1 876.878 318.5 Q 875.847 321.991 874.161 324.072 A 8.553 8.553 0 0 1 872.003 326 A 11.589 11.589 0 0 1 869.112 327.239 Q 866.456 328 862.753 328 L 769.253 328 A 28.97 28.97 0 0 1 765.792 327.808 Q 762.244 327.379 760.003 326 Q 757.524 324.475 755.991 320.914 A 21.532 21.532 0 0 1 755.128 318.5 Q 753.669 313.563 753.52 304.595 A 126.017 126.017 0 0 1 753.503 302.5 Q 753.503 293.401 754.723 288.056 A 25.657 25.657 0 0 1 755.128 286.5 Q 756.191 282.902 757.95 280.748 A 9.05 9.05 0 0 1 760.003 278.875 Q 763.253 276.75 769.253 276.75 L 781.003 276.75 L 781.003 187.75 Q 781.003 168.25 774.253 158.25 A 21.484 21.484 0 0 0 761.911 149.542 Q 758.116 148.452 753.493 148.282 A 47.287 47.287 0 0 0 751.753 148.25 Q 737.253 148.25 724.253 160.375 A 75.469 75.469 0 0 0 711.25 176.587 A 103.529 103.529 0 0 0 703.378 192.75 A 117.893 117.893 0 0 0 695.511 234.566 A 133.605 133.605 0 0 0 695.503 236 L 695.503 276.75 L 707.253 276.75 A 27.248 27.248 0 0 1 710.734 276.958 Q 714.269 277.414 716.503 278.875 A 9.47 9.47 0 0 1 719.075 281.437 Q 719.907 282.632 720.563 284.193 A 22.199 22.199 0 0 1 721.378 286.5 Q 722.837 291.438 722.986 300.406 A 126.017 126.017 0 0 1 723.003 302.5 Q 723.003 311.6 721.782 316.944 A 25.657 25.657 0 0 1 721.378 318.5 Q 720.347 321.991 718.661 324.072 A 8.553 8.553 0 0 1 716.503 326 A 11.589 11.589 0 0 1 713.612 327.239 Q 710.956 328 707.253 328 L 613.753 328 A 28.97 28.97 0 0 1 610.292 327.808 Q 606.744 327.379 604.503 326 Q 602.024 324.475 600.491 320.914 A 21.532 21.532 0 0 1 599.628 318.5 Q 598.169 313.563 598.02 304.595 A 126.017 126.017 0 0 1 598.003 302.5 Q 598.003 293.401 599.223 288.056 A 25.657 25.657 0 0 1 599.628 286.5 Q 600.691 282.902 602.45 280.748 A 9.05 9.05 0 0 1 604.503 278.875 Q 607.753 276.75 613.753 276.75 L 633.003 276.75 L 633.003 51.25 L 608.753 51.25 A 28.97 28.97 0 0 1 605.292 51.058 Q 601.744 50.629 599.503 49.25 Q 597.024 47.725 595.491 44.164 A 21.532 21.532 0 0 1 594.628 41.75 Q 593.169 36.813 593.02 27.845 A 126.017 126.017 0 0 1 593.003 25.75 Q 593.003 16.651 594.223 11.306 A 25.657 25.657 0 0 1 594.628 9.75 Q 595.691 6.152 597.45 3.998 A 9.05 9.05 0 0 1 599.503 2.125 Q 602.753 0 608.753 0 L 679.753 0 Q 687.67 0 691.358 3.145 A 8.926 8.926 0 0 1 691.878 3.625 A 10.471 10.471 0 0 1 694.157 7.201 Q 695.418 10.358 695.498 15.105 A 38.563 38.563 0 0 1 695.503 15.75 Z M 540.003 107.25 L 540.003 187.5 A 14.668 14.668 0 0 1 539.142 192.661 Q 537.707 196.506 533.878 198.821 A 17.045 17.045 0 0 1 532.378 199.625 A 27.207 27.207 0 0 1 527.288 201.378 Q 521.819 202.738 513.589 203.11 A 146.195 146.195 0 0 1 507.003 203.25 Q 496.423 203.25 490.201 201.933 A 33.215 33.215 0 0 1 488.878 201.625 A 27.481 27.481 0 0 1 485.599 200.583 Q 481.8 199.086 480.003 196.75 A 10.809 10.809 0 0 1 478.294 193.38 Q 477.503 190.875 477.503 187.5 Q 477.503 177 472.378 168 A 35.741 35.741 0 0 0 460.749 155.768 A 44.46 44.46 0 0 0 457.128 153.625 Q 447.144 148.325 433.149 148.251 A 75.11 75.11 0 0 0 432.753 148.25 Q 414.753 148.25 401.253 156.125 Q 387.753 164 380.378 178.625 A 68.02 68.02 0 0 0 373.955 199.262 A 88.804 88.804 0 0 0 373.003 212.5 A 85.348 85.348 0 0 0 374.733 230.064 A 66.325 66.325 0 0 0 380.378 246.375 Q 387.753 261 401.253 268.875 A 57.492 57.492 0 0 0 422.462 276.056 A 74.031 74.031 0 0 0 432.753 276.75 A 128.631 128.631 0 0 0 463.988 272.782 A 149.791 149.791 0 0 0 472.128 270.5 Q 492.253 264.25 511.253 253.25 A 23.939 23.939 0 0 1 514.39 251.776 Q 516.127 251.119 517.737 250.883 A 12.161 12.161 0 0 1 519.503 250.75 A 13.86 13.86 0 0 1 528.348 254.136 Q 534.272 258.928 539.253 270.5 A 76.424 76.424 0 0 1 541.722 277.205 Q 543.753 283.711 543.753 288.75 A 18.025 18.025 0 0 1 537.068 303.229 A 26.091 26.091 0 0 1 533.003 306 Q 509.753 319 484.128 326.25 Q 458.503 333.5 432.753 333.5 A 157.851 157.851 0 0 1 397.587 329.746 A 124.579 124.579 0 0 1 366.003 318 Q 337.253 302.5 321.628 275 A 120.364 120.364 0 0 1 306.555 225.395 A 147.978 147.978 0 0 1 306.003 212.5 A 133.181 133.181 0 0 1 311.267 174.497 A 116.145 116.145 0 0 1 321.753 149.875 Q 337.503 122.25 364.628 106.875 A 119.256 119.256 0 0 1 419.028 91.636 A 142.227 142.227 0 0 1 425.253 91.5 A 87.323 87.323 0 0 1 447.207 94.078 A 54.893 54.893 0 0 1 482.503 120.75 L 482.503 107.25 Q 482.503 98.75 489.753 95.125 A 25.878 25.878 0 0 1 494.829 93.293 Q 501.753 91.5 513.003 91.5 A 108.233 108.233 0 0 1 519.939 91.706 Q 529.896 92.348 534.253 95 Q 539.758 98.351 539.992 106.514 A 25.629 25.629 0 0 1 540.003 107.25 Z M 227.253 235.5 L 66.753 235.5 A 54.702 54.702 0 0 0 73.596 252.19 A 47.141 47.141 0 0 0 87.128 266.125 A 58.88 58.88 0 0 0 107.197 274.68 Q 116.159 276.75 126.753 276.75 Q 165.503 276.75 210.753 263 A 18.895 18.895 0 0 1 216.659 262.001 A 17.981 17.981 0 0 1 216.753 262 A 11.166 11.166 0 0 1 224.499 265.113 A 16.581 16.581 0 0 1 226.253 267 Q 230.253 272 233.503 284 A 89.443 89.443 0 0 1 234.977 290.294 Q 236.003 295.586 236.003 299.75 Q 236.003 304.34 234.57 307.496 A 11.384 11.384 0 0 1 233.128 309.875 Q 230.99 312.571 226.847 314.506 A 32.199 32.199 0 0 1 223.753 315.75 Q 198.753 324 172.753 328.75 A 284.145 284.145 0 0 1 123.316 333.496 A 263.648 263.648 0 0 1 121.753 333.5 A 156.908 156.908 0 0 1 90.513 330.534 A 116.454 116.454 0 0 1 56.253 318 Q 28.753 302.5 14.378 275.125 Q 0.003 247.75 0.003 212.5 A 139.583 139.583 0 0 1 4.683 175.739 A 118.472 118.472 0 0 1 15.003 150 Q 30.003 122.5 58.253 107 Q 86.503 91.5 124.253 91.5 A 146.992 146.992 0 0 1 155.091 94.579 A 107.592 107.592 0 0 1 189.003 107.875 Q 215.753 124.25 229.378 153.375 Q 243.003 182.5 243.003 220 Q 243.003 227.757 239.984 231.35 A 8.534 8.534 0 0 1 239.378 232 A 10.467 10.467 0 0 1 235.888 234.167 Q 232.499 235.5 227.253 235.5 Z M 1076.337 95.137 A 157.428 157.428 0 0 0 1041.753 91.5 Q 1003.753 91.5 975.253 107 Q 946.753 122.5 931.378 150 A 116.785 116.785 0 0 0 920.868 175.498 A 136.254 136.254 0 0 0 916.003 212.5 A 149.702 149.702 0 0 0 916.637 226.41 A 121.505 121.505 0 0 0 931.378 275 Q 946.753 302.5 975.253 318 A 122.798 122.798 0 0 0 1007.169 329.864 A 157.428 157.428 0 0 0 1041.753 333.5 Q 1079.753 333.5 1108.253 318 Q 1136.753 302.5 1152.128 275 A 116.785 116.785 0 0 0 1162.638 249.502 A 136.254 136.254 0 0 0 1167.503 212.5 A 149.702 149.702 0 0 0 1166.869 198.591 A 121.505 121.505 0 0 0 1152.128 150 Q 1136.753 122.5 1108.253 107 A 122.798 122.798 0 0 0 1076.337 95.137 Z M 1041.753 148.25 A 69.344 69.344 0 0 0 1025.922 149.981 A 54.1 54.1 0 0 0 1010.503 156.125 Q 997.253 164 990.128 178.5 A 67.99 67.99 0 0 0 984.179 197.482 A 91.851 91.851 0 0 0 983.003 212.5 Q 983.003 232 990.128 246.5 Q 997.253 261 1010.503 268.875 A 55.505 55.505 0 0 0 1030.452 275.903 A 72.746 72.746 0 0 0 1041.753 276.75 A 69.344 69.344 0 0 0 1057.584 275.02 A 54.1 54.1 0 0 0 1073.003 268.875 Q 1086.253 261 1093.378 246.5 A 67.99 67.99 0 0 0 1099.327 227.519 A 91.851 91.851 0 0 0 1100.503 212.5 Q 1100.503 193 1093.378 178.5 Q 1086.253 164 1073.003 156.125 A 55.505 55.505 0 0 0 1053.054 149.098 A 72.746 72.746 0 0 0 1041.753 148.25 Z M 67.753 186.75 L 177.753 186.75 A 51.884 51.884 0 0 0 171.412 171.033 A 44.791 44.791 0 0 0 159.628 158.375 A 50.829 50.829 0 0 0 140.75 149.986 Q 133.63 148.359 125.361 148.257 A 90.064 90.064 0 0 0 124.253 148.25 A 81.712 81.712 0 0 0 103.133 150.771 Q 78.533 157.356 69.578 181.151 A 67.184 67.184 0 0 0 67.753 186.75 Z" vector-effect="non-scaling-stroke"/></g></svg>
