<svg width="228.029" height="65.137" viewBox="0 0 228.029 65.137" xmlns="http://www.w3.org/2000/svg"><g id="svgGroup" stroke-linecap="round" fill-rule="evenodd" font-size="9pt" stroke="#000" stroke-width="0" fill="#ffffff" style="stroke:#000;stroke-width:0;fill:#ffffff"><path d="M 135.84 3.076 L 135.84 26.807 Q 139.984 20.487 145.35 18.637 A 14.166 14.166 0 0 1 150.001 17.871 A 17.093 17.093 0 0 1 154.169 18.359 A 13.787 13.787 0 0 1 157.789 19.824 Q 161.133 21.777 162.94 25.366 A 16.539 16.539 0 0 1 164.449 30.067 A 22.255 22.255 0 0 1 164.747 33.789 L 164.747 54.053 L 168.506 54.053 Q 169.269 54.053 169.804 54.229 A 2.152 2.152 0 0 1 170.313 54.468 A 1.85 1.85 0 0 1 170.815 54.968 Q 171.089 55.361 171.265 55.957 A 6.022 6.022 0 0 1 171.429 56.702 Q 171.56 57.516 171.579 58.673 A 24.613 24.613 0 0 1 171.583 59.082 A 21.52 21.52 0 0 1 171.558 60.158 Q 171.505 61.198 171.344 61.903 A 5.011 5.011 0 0 1 171.265 62.207 A 4.019 4.019 0 0 1 171.049 62.785 Q 170.759 63.397 170.313 63.672 Q 169.678 64.063 168.506 64.063 L 150.245 64.063 A 5.658 5.658 0 0 1 149.569 64.025 Q 148.876 63.941 148.438 63.672 Q 147.803 63.281 147.486 62.207 A 6.022 6.022 0 0 1 147.322 61.462 Q 147.191 60.648 147.172 59.491 A 24.613 24.613 0 0 1 147.169 59.082 A 21.52 21.52 0 0 1 147.194 58.006 Q 147.246 56.966 147.407 56.261 A 5.011 5.011 0 0 1 147.486 55.957 Q 147.803 54.883 148.438 54.468 Q 149.073 54.053 150.245 54.053 L 152.54 54.053 L 152.54 36.67 A 17.64 17.64 0 0 0 152.423 34.572 Q 152.148 32.282 151.221 30.908 A 4.196 4.196 0 0 0 148.811 29.207 Q 147.932 28.955 146.827 28.955 A 6.985 6.985 0 0 0 143.236 29.975 A 10.241 10.241 0 0 0 141.456 31.323 A 14.74 14.74 0 0 0 138.916 34.49 A 20.221 20.221 0 0 0 137.379 37.647 A 23.026 23.026 0 0 0 135.842 45.814 A 26.095 26.095 0 0 0 135.84 46.094 L 135.84 54.053 L 138.135 54.053 Q 138.898 54.053 139.433 54.229 A 2.152 2.152 0 0 1 139.942 54.468 A 1.85 1.85 0 0 1 140.444 54.968 Q 140.718 55.361 140.894 55.957 A 6.022 6.022 0 0 1 141.058 56.702 Q 141.189 57.516 141.208 58.673 A 24.613 24.613 0 0 1 141.212 59.082 A 21.52 21.52 0 0 1 141.186 60.158 Q 141.134 61.198 140.973 61.903 A 5.011 5.011 0 0 1 140.894 62.207 A 4.019 4.019 0 0 1 140.678 62.785 Q 140.388 63.397 139.942 63.672 Q 139.307 64.063 138.135 64.063 L 119.874 64.063 A 5.658 5.658 0 0 1 119.198 64.025 Q 118.505 63.941 118.067 63.672 Q 117.432 63.281 117.115 62.207 A 6.022 6.022 0 0 1 116.951 61.462 Q 116.82 60.648 116.801 59.491 A 24.613 24.613 0 0 1 116.797 59.082 A 21.52 21.52 0 0 1 116.823 58.006 Q 116.875 56.966 117.036 56.261 A 5.011 5.011 0 0 1 117.115 55.957 Q 117.432 54.883 118.067 54.468 Q 118.702 54.053 119.874 54.053 L 123.633 54.053 L 123.633 10.01 L 118.897 10.01 A 5.658 5.658 0 0 1 118.221 9.972 Q 117.528 9.889 117.09 9.619 Q 116.456 9.229 116.138 8.154 A 6.022 6.022 0 0 1 115.974 7.409 Q 115.843 6.596 115.824 5.438 A 24.613 24.613 0 0 1 115.821 5.029 A 21.52 21.52 0 0 1 115.846 3.953 Q 115.898 2.913 116.059 2.208 A 5.011 5.011 0 0 1 116.138 1.904 Q 116.456 0.83 117.09 0.415 Q 117.725 0 118.897 0 L 132.764 0 A 6.17 6.17 0 0 1 133.579 0.05 Q 134.612 0.188 135.132 0.708 Q 135.813 1.389 135.839 2.95 A 7.531 7.531 0 0 1 135.84 3.076 Z M 105.469 20.947 L 105.469 36.621 A 2.865 2.865 0 0 1 105.301 37.629 Q 104.969 38.519 103.98 38.989 A 5.314 5.314 0 0 1 102.986 39.332 Q 101.516 39.697 99.024 39.697 A 26.864 26.864 0 0 1 97.754 39.669 Q 96.359 39.603 95.484 39.38 Q 94.239 39.063 93.751 38.428 Q 93.37 37.933 93.286 37.11 A 4.834 4.834 0 0 1 93.262 36.621 A 7.567 7.567 0 0 0 92.261 32.813 Q 91.26 31.055 89.283 30.005 A 8.68 8.68 0 0 0 86.841 29.163 Q 85.795 28.962 84.599 28.955 A 14.676 14.676 0 0 0 84.522 28.955 A 13.587 13.587 0 0 0 81.274 29.328 A 10.878 10.878 0 0 0 78.37 30.493 Q 75.733 32.031 74.293 34.888 A 13.285 13.285 0 0 0 73.038 38.918 A 17.344 17.344 0 0 0 72.852 41.504 A 16.669 16.669 0 0 0 73.19 44.934 A 12.954 12.954 0 0 0 74.293 48.12 Q 75.733 50.977 78.37 52.515 A 11.229 11.229 0 0 0 82.512 53.917 A 14.459 14.459 0 0 0 84.522 54.053 A 25.123 25.123 0 0 0 90.623 53.278 A 29.256 29.256 0 0 0 92.212 52.832 A 37.309 37.309 0 0 0 99.854 49.463 A 4.676 4.676 0 0 1 100.467 49.175 Q 100.996 48.975 101.465 48.975 A 2.707 2.707 0 0 1 103.193 49.636 Q 104.35 50.572 105.323 52.832 A 14.927 14.927 0 0 1 105.805 54.142 Q 106.003 54.777 106.103 55.341 A 6.111 6.111 0 0 1 106.202 56.397 Q 106.202 58.594 104.102 59.766 A 44.086 44.086 0 0 1 94.556 63.721 A 36.704 36.704 0 0 1 84.522 65.137 A 30.83 30.83 0 0 1 77.654 64.403 A 24.332 24.332 0 0 1 71.485 62.109 A 21.437 21.437 0 0 1 62.818 53.711 A 23.509 23.509 0 0 1 59.874 44.022 A 28.902 28.902 0 0 1 59.766 41.504 A 26.012 26.012 0 0 1 60.794 34.081 A 22.684 22.684 0 0 1 62.842 29.273 A 21.963 21.963 0 0 1 71.216 20.874 A 23.292 23.292 0 0 1 81.841 17.898 A 27.778 27.778 0 0 1 83.057 17.871 A 17.055 17.055 0 0 1 87.345 18.375 A 10.721 10.721 0 0 1 94.239 23.584 L 94.239 20.947 Q 94.239 19.374 95.51 18.656 A 3.24 3.24 0 0 1 95.655 18.579 A 5.054 5.054 0 0 1 96.646 18.221 Q 97.68 17.954 99.207 17.891 A 24.008 24.008 0 0 1 100.196 17.871 A 21.139 21.139 0 0 1 101.551 17.911 Q 102.842 17.995 103.651 18.251 A 3.196 3.196 0 0 1 104.346 18.555 A 2.214 2.214 0 0 1 105.343 19.915 Q 105.453 20.315 105.467 20.803 A 5.005 5.005 0 0 1 105.469 20.947 Z M 44.385 45.996 L 13.038 45.996 A 10.684 10.684 0 0 0 14.374 49.256 A 9.207 9.207 0 0 0 17.017 51.978 Q 20.069 54.053 24.756 54.053 Q 32.325 54.053 41.163 51.367 A 3.69 3.69 0 0 1 42.316 51.172 A 3.522 3.522 0 0 1 42.335 51.172 A 2.181 2.181 0 0 1 43.847 51.78 A 3.238 3.238 0 0 1 44.19 52.149 A 4.554 4.554 0 0 1 44.641 52.849 Q 45.16 53.821 45.606 55.469 Q 45.957 56.769 46.056 57.791 A 7.875 7.875 0 0 1 46.094 58.545 Q 46.094 59.441 45.814 60.058 A 2.223 2.223 0 0 1 45.533 60.523 Q 44.971 61.231 43.702 61.67 A 74.434 74.434 0 0 1 33.741 64.209 A 55.497 55.497 0 0 1 24.085 65.136 A 51.495 51.495 0 0 1 23.78 65.137 A 30.646 30.646 0 0 1 17.678 64.557 A 22.745 22.745 0 0 1 10.987 62.109 A 20.263 20.263 0 0 1 2.808 53.735 A 24.467 24.467 0 0 1 0.223 45.255 A 30.866 30.866 0 0 1 0.001 41.504 A 27.262 27.262 0 0 1 0.915 34.324 A 23.139 23.139 0 0 1 2.93 29.297 Q 5.86 23.926 11.378 20.899 A 24.278 24.278 0 0 1 19.418 18.229 A 31.744 31.744 0 0 1 24.268 17.871 A 28.709 28.709 0 0 1 30.291 18.472 A 21.014 21.014 0 0 1 36.915 21.069 Q 42.139 24.268 44.8 29.956 A 28.007 28.007 0 0 1 47.14 38.074 A 36.064 36.064 0 0 1 47.462 42.969 Q 47.462 44.484 46.872 45.186 A 1.667 1.667 0 0 1 46.754 45.313 A 2.044 2.044 0 0 1 46.072 45.736 Q 45.458 45.977 44.532 45.995 A 7.757 7.757 0 0 1 44.385 45.996 Z M 203.467 17.871 Q 210.889 17.871 216.456 20.899 A 21.188 21.188 0 0 1 225.025 29.297 A 23.731 23.731 0 0 1 227.904 38.787 A 29.239 29.239 0 0 1 228.028 41.504 A 26.612 26.612 0 0 1 227.078 48.731 A 22.81 22.81 0 0 1 225.025 53.711 A 21.188 21.188 0 0 1 216.456 62.109 A 24.639 24.639 0 0 1 208.351 64.779 A 32.19 32.19 0 0 1 203.467 65.137 Q 196.045 65.137 190.479 62.109 A 21.188 21.188 0 0 1 181.91 53.711 A 23.731 23.731 0 0 1 179.031 44.221 A 29.239 29.239 0 0 1 178.907 41.504 A 26.612 26.612 0 0 1 179.857 34.277 A 22.81 22.81 0 0 1 181.91 29.297 A 21.188 21.188 0 0 1 190.479 20.899 A 24.639 24.639 0 0 1 198.584 18.229 A 32.19 32.19 0 0 1 203.467 17.871 Z M 203.467 28.955 A 13.544 13.544 0 0 0 200.375 29.293 A 10.566 10.566 0 0 0 197.364 30.493 Q 194.776 32.031 193.384 34.863 A 13.279 13.279 0 0 0 192.222 38.571 A 17.94 17.94 0 0 0 191.993 41.504 A 17.601 17.601 0 0 0 192.288 44.808 A 13.102 13.102 0 0 0 193.384 48.145 Q 194.776 50.977 197.364 52.515 A 10.841 10.841 0 0 0 201.26 53.887 A 14.208 14.208 0 0 0 203.467 54.053 A 13.544 13.544 0 0 0 206.559 53.715 A 10.566 10.566 0 0 0 209.571 52.515 Q 212.159 50.977 213.55 48.145 A 13.279 13.279 0 0 0 214.712 44.437 A 17.94 17.94 0 0 0 214.942 41.504 A 17.601 17.601 0 0 0 214.646 38.2 A 13.102 13.102 0 0 0 213.55 34.863 Q 212.159 32.031 209.571 30.493 A 10.841 10.841 0 0 0 205.675 29.121 A 14.208 14.208 0 0 0 203.467 28.955 Z M 13.233 36.475 L 34.717 36.475 A 10.134 10.134 0 0 0 33.479 33.405 A 8.748 8.748 0 0 0 31.177 30.933 A 9.928 9.928 0 0 0 27.49 29.294 Q 26.1 28.976 24.484 28.956 A 17.59 17.59 0 0 0 24.268 28.955 A 15.959 15.959 0 0 0 20.143 29.447 Q 14.795 30.879 13.233 36.475 Z" vector-effect="non-scaling-stroke"/></g></svg>