<svg xmlns="http://www.w3.org/2000/svg" version="1.1" xmlns:xlink="http://www.w3.org/1999/xlink" width="512" height="512" x="0" y="0" viewBox="0 0 64 64" style="enable-background:new 0 0 512 512" xml:space="preserve" class="">
  <g>
  <path d="M32 45.48c-7.43 0-13.48-6.05-13.48-13.48S24.57 18.52 32 18.52c2.92 0 5.7.92 8.04 2.66.44.33.54.96.21 1.4s-.96.54-1.4.21A11.395 11.395 0 0 0 32 20.53c-6.33 0-11.48 5.15-11.48 11.48S25.67 43.48 32 43.48 43.48 38.33 43.48 32c0-.55.45-1 1-1s1 .45 1 1c0 7.43-6.04 13.48-13.48 13.48z" fill="#0033FF" opacity="1" data-original="#0033FF" class="">
  </path>
  <path d="M32 39.83c-3.24 0-6.1-1.95-7.29-4.96-.2-.51.05-1.09.56-1.3.51-.2 1.09.05 1.3.56a5.8 5.8 0 0 0 5.43 3.7c3.22 0 5.83-2.62 5.83-5.83s-2.62-5.83-5.83-5.83c-1.77 0-3.43.79-4.54 2.17a1.002 1.002 0 1 1-1.56-1.26 7.826 7.826 0 0 1 6.1-2.92c4.32 0 7.83 3.51 7.83 7.83s-3.51 7.84-7.83 7.84z" fill="#0033FF" opacity="1" data-original="#0033FF" class="">
  </path>
  <path d="M32 50.68c-4.48 0-8.81-1.61-12.2-4.54-.42-.36-.46-.99-.1-1.41s.99-.46 1.41-.1a16.69 16.69 0 0 0 10.9 4.05c9.2 0 16.68-7.48 16.68-16.68S41.2 15.32 32 15.32c-7.31 0-13.7 4.68-15.91 11.65-.51 1.62-.77 3.32-.77 5.04 0 .55-.45 1-1 1s-1-.45-1-1c0-1.92.29-3.82.87-5.64 2.47-7.8 9.63-13.04 17.81-13.04 10.3 0 18.68 8.38 18.68 18.68S42.3 50.68 32 50.68z" fill="#0033FF" opacity="1" data-original="#0033FF" class="">
  </path>
  <path d="M32 55.96C18.79 55.96 8.04 45.21 8.04 32S18.79 8.04 32 8.04c3.99 0 7.94 1 11.42 2.89.49.26.67.87.4 1.36-.26.48-.87.66-1.36.4a22.028 22.028 0 0 0-10.47-2.65c-12.11 0-21.96 9.85-21.96 21.96S19.89 53.96 32 53.96 53.96 44.11 53.96 32c0-3.76-.97-7.48-2.8-10.74a1 1 0 0 1 1.74-.98c2 3.56 3.06 7.61 3.06 11.72 0 13.21-10.75 23.96-23.96 23.96z" fill="#0033FF" opacity="1" data-original="#0033FF" class="">
  </path>
  <path d="M32 60.99c-15.98 0-28.99-13-28.99-28.99 0-5.16 1.37-10.23 3.97-14.66.28-.48.89-.64 1.37-.36s.64.89.36 1.37c-2.42 4.12-3.7 8.84-3.7 13.64 0 14.88 12.11 26.99 26.99 26.99S58.99 46.88 58.99 32 46.88 5.01 32 5.01c-4.04 0-7.92.87-11.54 2.58-.5.24-1.09.02-1.33-.48s-.02-1.09.48-1.33C23.5 3.95 27.67 3.01 32 3.01c15.98 0 28.99 13 28.99 28.99S47.98 60.99 32 60.99z" fill="#0033FF" opacity="1" data-original="#0033FF" class="">
  </path>
  <path d="M32 35.13c-1.73 0-3.13-1.4-3.13-3.13 0-.68.21-1.32.62-1.86.33-.44.96-.54 1.4-.21s.54.96.21 1.4c-.14.19-.22.43-.22.67 0 .62.51 1.13 1.13 1.13s1.13-.51 1.13-1.13c0-.38-.19-.73-.51-.94a1 1 0 0 1-.28-1.39c.3-.46.92-.59 1.39-.28.88.58 1.4 1.56 1.4 2.61A3.143 3.143 0 0 1 32 35.13z" fill="#0033FF" opacity="1" data-original="#0033FF" class="">
  </path>
</g>
</svg>