<svg width="1158.506" height="333.504" viewBox="0 0 1158.506 333.504" xmlns="http://www.w3.org/2000/svg"><g id="svgGroup" stroke-linecap="round" fill-rule="evenodd" font-size="9pt" stroke="#0033ff" stroke-width="0" fill="#0033ff" style="stroke:#0033ff;stroke-width:0;fill:#0033ff"><path d="M 673.003 17 L 673.003 141.5 A 137.312 137.312 0 0 1 690.534 120.094 A 107.781 107.781 0 0 1 710.628 104.375 Q 732.003 91.5 756.753 91.5 Q 779.503 91.5 796.253 101.375 A 64.808 64.808 0 0 1 821.433 128.603 A 78.029 78.029 0 0 1 822.003 129.75 A 87.382 87.382 0 0 1 829.518 153.923 A 117.421 117.421 0 0 1 831.003 173 L 831.003 294 L 851.503 294 Q 856.408 294 859.69 295.291 A 10.605 10.605 0 0 1 863.628 297.875 A 11.077 11.077 0 0 1 865.801 301.446 Q 867.095 304.745 867.236 309.753 A 44.443 44.443 0 0 1 867.253 311 Q 867.253 319.056 864.503 323.035 A 9.483 9.483 0 0 1 863.628 324.125 A 9.085 9.085 0 0 1 863.542 324.216 Q 859.903 328 851.503 328 L 770.503 328 Q 765.597 328 762.316 326.71 A 10.605 10.605 0 0 1 758.378 324.125 A 11.077 11.077 0 0 1 756.205 320.555 Q 754.911 317.256 754.77 312.248 A 44.443 44.443 0 0 1 754.753 311 Q 754.753 302.945 757.502 298.965 A 9.483 9.483 0 0 1 758.378 297.875 A 10.599 10.599 0 0 1 762.304 295.296 Q 765.589 294 770.503 294 L 793.503 294 L 793.503 176.75 A 78.249 78.249 0 0 0 792.292 162.547 Q 789.979 150.032 783.253 141.5 A 33.1 33.1 0 0 0 763.076 129.445 A 50.931 50.931 0 0 0 753.003 128.5 Q 731.753 128.5 713.378 140.75 A 85.349 85.349 0 0 0 687.62 168.008 A 103.404 103.404 0 0 0 684.003 174.5 A 101.103 101.103 0 0 0 673.328 213.539 A 121.845 121.845 0 0 0 673.003 222.5 L 673.003 294 L 696.003 294 Q 700.908 294 704.19 295.291 A 10.605 10.605 0 0 1 708.128 297.875 A 11.077 11.077 0 0 1 710.301 301.446 Q 711.595 304.745 711.736 309.753 A 44.443 44.443 0 0 1 711.753 311 Q 711.753 319.056 709.003 323.035 A 9.483 9.483 0 0 1 708.128 324.125 A 10.599 10.599 0 0 1 704.202 326.705 Q 700.917 328 696.003 328 L 615.003 328 A 37.041 37.041 0 0 1 614.872 328 Q 609.983 327.983 606.721 326.672 A 10.556 10.556 0 0 1 602.878 324.125 A 11.077 11.077 0 0 1 600.705 320.555 Q 599.411 317.256 599.27 312.248 A 44.443 44.443 0 0 1 599.253 311 Q 599.253 302.945 602.002 298.965 A 9.483 9.483 0 0 1 602.878 297.875 A 9.085 9.085 0 0 1 602.963 297.785 Q 606.602 294 615.003 294 L 635.503 294 L 635.503 34 L 612.503 34 Q 607.597 34 604.316 32.71 A 10.605 10.605 0 0 1 600.378 30.125 A 11.077 11.077 0 0 1 598.205 26.555 Q 596.911 23.256 596.77 18.248 A 44.443 44.443 0 0 1 596.753 17 Q 596.753 8.945 599.502 4.965 A 9.483 9.483 0 0 1 600.378 3.875 A 10.599 10.599 0 0 1 604.304 1.296 Q 607.589 0 612.503 0 L 657.253 0 Q 662.158 0 665.44 1.291 A 10.605 10.605 0 0 1 669.378 3.875 A 11.077 11.077 0 0 1 671.551 7.446 Q 672.845 10.745 672.986 15.753 A 44.443 44.443 0 0 1 673.003 17 Z M 532.753 107.75 L 532.753 180.25 A 28.35 28.35 0 0 1 532.426 184.719 Q 532.057 187.027 531.27 188.843 A 10.886 10.886 0 0 1 528.503 192.75 Q 524.253 196.5 514.003 196.5 Q 503.753 196.5 499.503 192.75 A 11.112 11.112 0 0 1 496.528 188.337 Q 495.813 186.491 495.499 184.174 A 29.264 29.264 0 0 1 495.253 180.25 A 49.382 49.382 0 0 0 492.433 163.375 A 45.134 45.134 0 0 0 487.253 153.25 A 46.2 46.2 0 0 0 474.177 140.614 A 63.629 63.629 0 0 0 463.378 135 Q 449.038 129.129 429.496 128.561 A 146.131 146.131 0 0 0 425.253 128.5 A 91.767 91.767 0 0 0 398.844 132.191 A 80.27 80.27 0 0 0 382.253 139.25 Q 363.253 150 352.503 169.25 A 85.368 85.368 0 0 0 341.965 205.844 A 102.931 102.931 0 0 0 341.753 212.5 A 99.382 99.382 0 0 0 344.912 237.993 A 83.952 83.952 0 0 0 351.878 255.875 Q 362.003 275 380.378 285.75 A 78.486 78.486 0 0 0 411.104 295.829 A 98.576 98.576 0 0 0 422.753 296.5 Q 445.753 296.5 467.378 289.375 Q 489.003 282.25 506.753 268.75 Q 512.003 264.75 516.503 264.75 A 11.14 11.14 0 0 1 522.868 266.855 Q 526.411 269.276 529.682 274.482 A 45.353 45.353 0 0 1 530.003 275 A 29.721 29.721 0 0 1 532.413 279.949 Q 533.753 283.564 533.753 287 A 16.594 16.594 0 0 1 527.952 299.727 A 24.622 24.622 0 0 1 525.753 301.5 A 144.967 144.967 0 0 1 495.605 318.723 A 179.304 179.304 0 0 1 478.503 325 Q 451.253 333.5 422.753 333.5 A 137.771 137.771 0 0 1 387.622 329.185 A 113.93 113.93 0 0 1 359.628 317.75 Q 332.253 302 317.253 274.5 A 123.545 123.545 0 0 1 302.78 225.192 A 150.259 150.259 0 0 1 302.253 212.5 A 134.008 134.008 0 0 1 307.629 173.999 A 117.71 117.71 0 0 1 317.503 150.5 Q 332.753 123 360.128 107.25 A 118.54 118.54 0 0 1 407.708 92.254 A 147.129 147.129 0 0 1 422.753 91.5 A 106.255 106.255 0 0 1 450.395 95 A 93.917 93.917 0 0 1 463.628 99.625 Q 482.253 107.75 495.253 122.75 L 495.253 107.75 A 28.35 28.35 0 0 1 495.58 103.282 Q 495.949 100.974 496.736 99.158 A 10.886 10.886 0 0 1 499.503 95.25 Q 503.753 91.5 514.003 91.5 Q 524.253 91.5 528.503 95.25 A 11.112 11.112 0 0 1 531.477 99.664 Q 532.192 101.51 532.507 103.827 A 29.264 29.264 0 0 1 532.753 107.75 Z M 220.503 221.75 L 39.503 221.75 Q 41.253 259 61.628 278.125 A 66.514 66.514 0 0 0 88.96 293.324 Q 102.374 297.25 119.253 297.25 Q 142.253 297.25 164.753 291.375 A 181.792 181.792 0 0 0 187.107 284.04 A 140.413 140.413 0 0 0 204.253 275.75 A 23.208 23.208 0 0 1 207.273 274.401 Q 209.788 273.5 212.003 273.5 Q 220.621 273.5 226.087 286.355 A 50.06 50.06 0 0 1 226.253 286.75 A 32.376 32.376 0 0 1 227.667 290.699 Q 228.255 292.782 228.429 294.68 A 17.166 17.166 0 0 1 228.503 296.25 A 15.359 15.359 0 0 1 222.315 308.719 A 26.799 26.799 0 0 1 217.503 311.75 Q 198.854 321.196 173.637 327.122 A 275.162 275.162 0 0 1 172.003 327.5 Q 145.753 333.5 119.253 333.5 A 164.524 164.524 0 0 1 89.359 330.92 Q 70.218 327.383 54.753 319 Q 28.003 304.5 14.003 277.25 A 122.729 122.729 0 0 1 2.683 243.351 A 169.087 169.087 0 0 1 0.003 212.5 A 142.463 142.463 0 0 1 4.181 177.335 A 117.041 117.041 0 0 1 15.253 149.25 Q 30.503 121.75 57.503 106.625 Q 84.503 91.5 119.253 91.5 Q 155.503 91.5 181.128 106.125 Q 206.753 120.75 220.503 146.625 A 133.768 133.768 0 0 1 233.675 184.95 A 169.653 169.653 0 0 1 236.253 206.25 Q 236.253 214.008 233.234 217.6 A 8.534 8.534 0 0 1 232.628 218.25 A 10.467 10.467 0 0 1 229.138 220.417 Q 225.749 221.75 220.503 221.75 Z M 1078.179 97.555 A 130.11 130.11 0 0 0 1038.003 91.5 A 146.043 146.043 0 0 0 1029.546 91.743 A 121.321 121.321 0 0 0 976.253 107 Q 948.753 122.5 933.128 150.125 A 116.875 116.875 0 0 0 923.011 173.747 A 132.588 132.588 0 0 0 917.503 212.5 A 147.58 147.58 0 0 0 917.884 223.186 A 121.449 121.449 0 0 0 933.128 274.875 Q 948.753 302.5 976.253 318 A 116.95 116.95 0 0 0 997.827 327.446 A 130.11 130.11 0 0 0 1038.003 333.5 A 146.043 146.043 0 0 0 1046.46 333.258 A 121.321 121.321 0 0 0 1099.753 318 Q 1127.253 302.5 1142.878 274.875 A 116.875 116.875 0 0 0 1152.994 251.254 A 132.588 132.588 0 0 0 1158.503 212.5 A 147.58 147.58 0 0 0 1158.121 201.815 A 121.449 121.449 0 0 0 1142.878 150.125 Q 1127.253 122.5 1099.753 107 A 116.95 116.95 0 0 0 1078.179 97.555 Z M 1038.003 128.5 A 93.945 93.945 0 0 0 1015.222 131.157 A 76.273 76.273 0 0 0 995.378 139.125 Q 977.003 149.75 967.003 168.875 A 87.727 87.727 0 0 0 957.794 199.144 A 109.934 109.934 0 0 0 957.003 212.5 A 102.575 102.575 0 0 0 959.825 237.015 A 84.588 84.588 0 0 0 967.003 256.125 Q 977.003 275.25 995.378 285.875 A 78.835 78.835 0 0 0 1024.827 295.66 A 100.455 100.455 0 0 0 1038.003 296.5 A 93.945 93.945 0 0 0 1060.784 293.844 A 76.273 76.273 0 0 0 1080.628 285.875 Q 1099.003 275.25 1109.003 256.125 A 87.727 87.727 0 0 0 1118.212 225.857 A 109.934 109.934 0 0 0 1119.003 212.5 A 102.575 102.575 0 0 0 1116.181 187.986 A 84.588 84.588 0 0 0 1109.003 168.875 Q 1099.003 149.75 1080.628 139.125 A 78.835 78.835 0 0 0 1051.179 129.341 A 100.455 100.455 0 0 0 1038.003 128.5 Z M 42.003 186.75 L 194.753 186.75 Q 189.503 158 170.628 142.875 A 64.516 64.516 0 0 0 147.541 131.299 Q 138.138 128.639 126.939 127.973 A 129.452 129.452 0 0 0 119.253 127.75 Q 88.503 127.75 68.378 143.375 Q 48.253 159 42.003 186.75 Z" vector-effect="non-scaling-stroke"/></g></svg>